<svg width="113" height="40" viewBox="0 0 113 40" fill="none" xmlns="http://www.w3.org/2000/svg">
<path d="M7.77363 36.7188C6.71937 36.7188 5.60122 36.607 4.41917 36.3834C3.26907 36.1917 2.4065 35.9361 1.83145 35.6166V28.141C2.31066 28.3646 2.91766 28.5403 3.65244 28.6681C4.41917 28.7959 5.18591 28.8598 5.95264 28.8598C7.35832 28.8598 8.34868 28.5723 8.92373 27.9972C9.49878 27.3902 9.7863 26.3999 9.7863 25.0261V2.50336H18.2683V25.9846C18.2683 29.2751 17.3738 31.8948 15.5847 33.8436C13.7957 35.7604 11.192 36.7188 7.77363 36.7188ZM39.3868 36.7188C36.0004 36.7188 32.9334 35.984 30.186 34.5145C27.4704 33.0449 25.314 31.0003 23.7167 28.3806C22.1512 25.729 21.3685 22.694 21.3685 19.2756C21.3685 15.8573 22.1512 12.8223 23.7167 10.1707C25.314 7.51907 27.4704 5.45848 30.186 3.98891C32.9334 2.51934 36.0004 1.78455 39.3868 1.78455C42.7412 1.78455 45.7762 2.51934 48.4917 3.98891C51.2392 5.45848 53.3956 7.51907 54.961 10.1707C56.5264 12.8223 57.3091 15.8573 57.3091 19.2756C57.3091 22.694 56.5264 25.729 54.961 28.3806C53.3956 31.0003 51.2392 33.0449 48.4917 34.5145C45.7762 35.984 42.7412 36.7188 39.3868 36.7188ZM39.3868 28.764C41.08 28.764 42.6294 28.3806 44.0351 27.6139C45.4408 26.8471 46.5589 25.7449 47.3895 24.3073C48.2202 22.8697 48.6355 21.1925 48.6355 19.2756C48.6355 17.3588 48.2202 15.6976 47.3895 14.2919C46.5908 12.8543 45.4887 11.7521 44.083 10.9853C42.6773 10.1867 41.1119 9.78732 39.3868 9.78732C37.6297 9.78732 36.0483 10.1867 34.6426 10.9853C33.2369 11.7521 32.1188 12.8543 31.2881 14.2919C30.4895 15.6976 30.0901 17.3588 30.0901 19.2756C30.0901 21.1925 30.4895 22.8697 31.2881 24.3073C32.1188 25.7449 33.2369 26.8471 34.6426 27.6139C36.0802 28.3806 37.6616 28.764 39.3868 28.764ZM79.2797 2.50336H87.6658L99.9815 22.4384V2.50336H108.463V36H100.125L87.7617 16.017V36H79.2797V2.50336Z" fill="black"/>
<path d="M66.5006 11.9438L59.6958 16.8796V8.54138L67.9382 2.50336H74.9825V36H66.5006V11.9438Z" fill="#F9F9F9"/>
</svg>
