<svg width="163" height="55" viewBox="0 0 163 55" fill="none" xmlns="http://www.w3.org/2000/svg">
<path d="M9.17548 54.0978C7.56534 54.0978 5.85762 53.927 4.05231 53.5855C2.2958 53.2928 0.978413 52.9024 0.100155 52.4145V40.9971C0.832037 41.3387 1.75909 41.607 2.8813 41.8022C4.05231 41.9974 5.22332 42.095 6.39433 42.095C8.54119 42.095 10.0537 41.6558 10.932 40.7776C11.8103 39.8505 12.2494 38.338 12.2494 36.2399V1.8415H25.2037V37.7037C25.2037 42.7293 23.8375 46.7302 21.1051 49.7065C18.3728 52.6341 14.3962 54.0978 9.17548 54.0978ZM57.4573 54.0978C52.2854 54.0978 47.6013 52.9756 43.4052 50.7312C39.2579 48.4867 35.9644 45.364 33.5248 41.3631C31.134 37.3133 29.9386 32.6781 29.9386 27.4573C29.9386 22.2366 31.134 17.6013 33.5248 13.5516C35.9644 9.50185 39.2579 6.35477 43.4052 4.11033C47.6013 1.86589 52.2854 0.743675 57.4573 0.743675C62.5805 0.743675 67.2158 1.86589 71.3631 4.11033C75.5592 6.35477 78.8527 9.50185 81.2435 13.5516C83.6343 17.6013 84.8297 22.2366 84.8297 27.4573C84.8297 32.6781 83.6343 37.3133 81.2435 41.3631C78.8527 45.364 75.5592 48.4867 71.3631 50.7312C67.2158 52.9756 62.5805 54.0978 57.4573 54.0978ZM57.4573 41.9486C60.0433 41.9486 62.4097 41.3631 64.5566 40.1921C66.7034 39.0211 68.4112 37.3377 69.6798 35.1421C70.9484 32.9465 71.5827 30.3849 71.5827 27.4573C71.5827 24.5298 70.9484 21.9926 69.6798 19.8458C68.46 17.6501 66.7766 15.9668 64.6298 14.7958C62.4829 13.576 60.0921 12.9661 57.4573 12.9661C54.7738 12.9661 52.3586 13.576 50.2117 14.7958C48.0649 15.9668 46.3571 17.6501 45.0886 19.8458C43.8688 21.9926 43.2589 24.5298 43.2589 27.4573C43.2589 30.3849 43.8688 32.9465 45.0886 35.1421C46.3571 37.3377 48.0649 39.0211 50.2117 40.1921C52.4074 41.3631 54.8226 41.9486 57.4573 41.9486ZM118.385 1.8415H131.193L150.002 32.2878V1.8415H162.956V53H150.222L131.339 22.4805V53H118.385V1.8415Z" fill="#FFCD00"/>
<path d="M98.8675 16.2596L88.4748 23.7979V11.0632L101.063 1.8415H111.822V53H98.8675V16.2596Z" fill="#414141"/>
</svg>
