<svg width="70" height="70" viewBox="0 0 70 70" fill="none" xmlns="http://www.w3.org/2000/svg">
<circle cx="23" cy="23" r="12" fill="#FFF0B3"/>
<path d="M53.2892 52.5906H51.1566V23.0525C51.1566 22.8614 51.0818 22.6782 50.9484 22.543C50.8151 22.4079 50.6343 22.332 50.4458 22.332H43.8113C43.6228 22.332 43.442 22.4079 43.3087 22.543C43.1754 22.6782 43.1005 22.8614 43.1005 23.0525V52.5906H39.3094V34.0992C39.3094 33.9082 39.2345 33.7249 39.1012 33.5898C38.9679 33.4547 38.7871 33.3788 38.5986 33.3788H31.9641C31.7756 33.3788 31.5948 33.4547 31.4615 33.5898C31.3281 33.7249 31.2533 33.9082 31.2533 34.0992V52.5906H27.4621V44.6657C27.4621 44.4746 27.3872 44.2914 27.2539 44.1563C27.1206 44.0212 26.9398 43.9453 26.7513 43.9453H20.1168C19.9283 43.9453 19.7475 44.0212 19.6142 44.1563C19.4809 44.2914 19.406 44.4746 19.406 44.6657V52.5906H17.2735C17.085 52.5906 16.9042 52.6665 16.7709 52.8016C16.6375 52.9367 16.5627 53.1199 16.5627 53.311C16.5627 53.5021 16.6375 53.6853 16.7709 53.8204C16.9042 53.9556 17.085 54.0315 17.2735 54.0315H53.2892C53.4777 54.0315 53.6585 53.9556 53.7918 53.8204C53.9251 53.6853 54 53.5021 54 53.311C54 53.1199 53.9251 52.9367 53.7918 52.8016C53.6585 52.6665 53.4777 52.5906 53.2892 52.5906ZM44.5222 23.7729H49.735V52.5906H44.5222V23.7729ZM32.6749 34.8197H37.8877V52.5906H32.6749V34.8197ZM20.8277 45.3862H26.0405V52.5906H20.8277V45.3862Z" fill="#414141"/>
<path d="M17.7474 39.1423C17.9358 39.1421 18.1165 39.0661 18.2497 38.931L37.8877 19.0276V22.0919C37.8877 22.2829 37.9626 22.4662 38.0959 22.6013C38.2292 22.7364 38.41 22.8123 38.5986 22.8123C38.7871 22.8123 38.9679 22.7364 39.1012 22.6013C39.2345 22.4662 39.3094 22.2829 39.3094 22.0919V17.2889C39.3087 17.1983 39.291 17.1087 39.2573 17.0248C39.2215 16.9363 39.1688 16.8559 39.102 16.7882C39.0353 16.7206 38.956 16.6671 38.8687 16.6309C38.7836 16.5922 38.6918 16.571 38.5986 16.5685H33.8597C33.6711 16.5685 33.4903 16.6444 33.357 16.7795C33.2237 16.9146 33.1488 17.0978 33.1488 17.2889C33.1488 17.48 33.2237 17.6632 33.357 17.7984C33.4903 17.9335 33.6711 18.0094 33.8597 18.0094H36.8831L17.2451 37.9128C17.1458 38.0135 17.0782 38.1418 17.0508 38.2815C17.0234 38.4212 17.0375 38.5659 17.0912 38.6975C17.145 38.8291 17.236 38.9415 17.3528 39.0207C17.4696 39.0999 17.6069 39.1422 17.7474 39.1423Z" fill="#414141"/>
</svg>
