<svg width="70" height="70" viewBox="0 0 70 70" fill="none" xmlns="http://www.w3.org/2000/svg">
<circle cx="22" cy="26" r="12" fill="#FFF0B3"/>
<path d="M47.5163 35.0775C47.4627 34.9497 47.3725 34.8405 47.2572 34.7636C47.1419 34.6867 47.0064 34.6455 46.8678 34.6452H38.7524L43.4515 15.5573C43.4845 15.4081 43.4682 15.2522 43.4049 15.1131C43.3417 14.9741 43.2349 14.8593 43.1008 14.7861C42.9667 14.713 42.8124 14.6854 42.6612 14.7075C42.5101 14.7296 42.3702 14.8003 42.2626 14.9088L22.404 34.852C22.3056 34.9505 22.2385 35.0761 22.2114 35.2127C22.1842 35.3494 22.1982 35.491 22.2515 35.6197C22.3048 35.7484 22.3951 35.8585 22.5109 35.9359C22.6267 36.0134 22.7628 36.0548 22.9021 36.0549H31.0176L26.3184 55.1429C26.2854 55.292 26.3017 55.4479 26.365 55.587C26.4282 55.7261 26.535 55.8408 26.6691 55.914C26.8032 55.9871 26.9575 56.0147 27.1087 55.9926C27.2599 55.9705 27.3998 55.8999 27.5073 55.7913L47.3659 35.8482C47.4646 35.7491 47.5315 35.6229 47.5583 35.4857C47.5851 35.3485 47.5704 35.2064 47.5163 35.0775ZM28.3062 53.0141L32.6106 35.5192C32.6364 35.4149 32.638 35.306 32.6152 35.2009C32.5925 35.0958 32.546 34.9973 32.4793 34.913C32.4127 34.8286 32.3276 34.7606 32.2306 34.7142C32.1336 34.6678 32.0273 34.6442 31.9198 34.6452H24.5985L41.4638 17.686L37.1687 35.1809C37.1431 35.2845 37.1414 35.3926 37.1636 35.4969C37.1858 35.6013 37.2315 35.6993 37.2971 35.7834C37.3627 35.8676 37.4466 35.9358 37.5424 35.9828C37.6382 36.0298 37.7434 36.0545 37.8501 36.0549H45.1714L28.3062 53.0141Z" fill="#414141"/>
<path d="M44.7814 44.0152C44.6477 43.8907 44.471 43.8229 44.2884 43.8262C44.1058 43.8294 43.9316 43.9034 43.8024 44.0325C43.6733 44.1616 43.5993 44.3359 43.5961 44.5185C43.5928 44.7011 43.6606 44.8778 43.7851 45.0114L49.4241 50.6504C49.5577 50.7749 49.7345 50.8427 49.9171 50.8395C50.0997 50.8363 50.2739 50.7623 50.4031 50.6332C50.5322 50.504 50.6062 50.3298 50.6094 50.1472C50.6126 49.9646 50.5448 49.7878 50.4203 49.6542L44.7814 44.0152Z" fill="#414141"/>
<path d="M24.5468 25.9518C24.6862 25.9517 24.8223 25.9103 24.9381 25.8328C25.0539 25.7553 25.1442 25.6453 25.1975 25.5166C25.2508 25.3879 25.2647 25.2462 25.2376 25.1096C25.2104 24.9729 25.1434 24.8474 25.0449 24.7488L19.406 19.1098C19.2724 18.9853 19.0956 18.9175 18.913 18.9208C18.7304 18.924 18.5562 18.998 18.427 19.1271C18.2979 19.2563 18.2239 19.4305 18.2207 19.6131C18.2175 19.7957 18.2852 19.9724 18.4098 20.1061L24.0487 25.745C24.1808 25.8773 24.36 25.9516 24.5468 25.9518Z" fill="#414141"/>
<path d="M43.5502 25.51C43.6823 25.642 43.8615 25.7162 44.0483 25.7162C44.2351 25.7162 44.4142 25.642 44.5464 25.51L50.1854 19.8711C50.3099 19.7374 50.3777 19.5607 50.3744 19.3781C50.3712 19.1955 50.2972 19.0213 50.1681 18.8921C50.039 18.763 49.8647 18.689 49.6821 18.6858C49.4995 18.6826 49.3228 18.7503 49.1892 18.8748L43.5502 24.5138C43.4182 24.646 43.344 24.8251 43.344 25.0119C43.344 25.1987 43.4182 25.3779 43.5502 25.51Z" fill="#414141"/>
<path d="M24.2837 44.2502L18.6447 49.8892C18.5755 49.9537 18.5199 50.0315 18.4814 50.118C18.4429 50.2045 18.4221 50.2978 18.4205 50.3924C18.4188 50.4871 18.4362 50.5811 18.4717 50.6689C18.5071 50.7566 18.5599 50.8364 18.6268 50.9033C18.6938 50.9702 18.7735 51.023 18.8613 51.0585C18.949 51.0939 19.043 51.1113 19.1377 51.1096C19.2323 51.108 19.3257 51.0873 19.4121 51.0487C19.4986 51.0102 19.5764 50.9547 19.6409 50.8854L25.2799 45.2464C25.4044 45.1128 25.4722 44.9361 25.469 44.7535C25.4658 44.5709 25.3918 44.3966 25.2626 44.2675C25.1335 44.1383 24.9593 44.0644 24.7766 44.0611C24.594 44.0579 24.4173 44.1257 24.2837 44.2502Z" fill="#414141"/>
<path d="M20.0826 42.1638C20.7315 42.1638 21.2574 41.6378 21.2574 40.989C21.2574 40.3402 20.7315 39.8142 20.0826 39.8142C19.4338 39.8142 18.9079 40.3402 18.9079 40.989C18.9079 41.6378 19.4338 42.1638 20.0826 42.1638Z" fill="#414141"/>
<path d="M15.8534 38.8744C16.5022 38.8744 17.0282 38.3484 17.0282 37.6996C17.0282 37.0507 16.5022 36.5248 15.8534 36.5248C15.2046 36.5248 14.6786 37.0507 14.6786 37.6996C14.6786 38.3484 15.2046 38.8744 15.8534 38.8744Z" fill="#414141"/>
<path d="M53.4466 32.7656C54.0954 32.7656 54.6214 32.2396 54.6214 31.5908C54.6214 30.942 54.0954 30.416 53.4466 30.416C52.7978 30.416 52.2718 30.942 52.2718 31.5908C52.2718 32.2396 52.7978 32.7656 53.4466 32.7656Z" fill="#414141"/>
<path d="M26.1915 21.0177C26.8404 21.0177 27.3663 20.4917 27.3663 19.8429C27.3663 19.1941 26.8404 18.6681 26.1915 18.6681C25.5427 18.6681 25.0168 19.1941 25.0168 19.8429C25.0168 20.4917 25.5427 21.0177 26.1915 21.0177Z" fill="#414141"/>
</svg>
