<svg width="70" height="70" viewBox="0 0 70 70" fill="none" xmlns="http://www.w3.org/2000/svg">
<circle cx="19" cy="27" r="12" fill="#FFF0B3"/>
<path d="M41.417 39.4409C40.1989 38.4459 38.467 38.4903 37.3009 39.4608L29.585 33.3221C29.6813 32.9537 29.7151 32.5679 29.6758 32.1775C29.5888 31.3173 29.1722 30.5424 28.5021 29.9957C27.1196 28.8672 25.0763 29.0742 23.9478 30.4567C22.9342 31.6984 23.001 33.4709 24.0264 34.6374L19.2444 40.0849C18.5802 39.5584 17.7521 39.3117 16.9096 39.4004C16.0494 39.487 15.2745 39.904 14.7278 40.5737C13.5992 41.9566 13.8063 43.9994 15.1887 45.128C15.7722 45.6041 16.4862 45.8576 17.2294 45.8576C17.3397 45.8576 17.4504 45.8521 17.5615 45.8407C18.4218 45.7537 19.1967 45.3371 19.7434 44.667C20.2901 43.9973 20.5432 43.1548 20.4562 42.2946C20.4118 41.8552 20.28 41.4382 20.0734 41.0621L25.0408 35.4034C25.4887 35.6219 25.9699 35.7389 26.4529 35.7389C27.3925 35.7389 28.3246 35.3329 28.9634 34.5504C28.9808 34.5292 28.9947 34.5069 29.0112 34.4853L36.5027 40.4457C35.8035 41.7787 36.1128 43.4679 37.3233 44.4562C37.9232 44.9454 38.647 45.1837 39.367 45.1837C40.3066 45.1837 41.2387 44.7781 41.8775 43.9952C42.4242 43.3255 42.6773 42.483 42.5903 41.6228C42.5037 40.7626 42.0862 39.9877 41.417 39.4409ZM18.7611 43.8659C18.4285 44.2736 17.957 44.5271 17.4335 44.58C16.9121 44.6345 16.3979 44.479 15.9898 44.1465C15.1486 43.4599 15.0231 42.2173 15.7092 41.3752C16.3958 40.534 17.6393 40.4085 18.4801 41.0951C18.5612 41.1614 18.6313 41.237 18.7002 41.3135C18.7353 41.382 18.7826 41.4458 18.8443 41.4998C19.034 41.7715 19.1599 42.0838 19.1945 42.4226C19.2478 42.9457 19.094 43.4582 18.7611 43.8659ZM27.9811 33.7489C27.6486 34.1562 27.1771 34.4097 26.654 34.4629C26.1305 34.5157 25.618 34.3619 25.2103 34.0294C24.369 33.3428 24.2431 32.0998 24.9297 31.2586C25.6163 30.4169 26.8598 30.2915 27.7006 30.978C28.1083 31.3106 28.3618 31.7821 28.4146 32.3056C28.4678 32.8286 28.3136 33.3411 27.9811 33.7489ZM40.8956 43.1937C40.2094 44.0345 38.9664 44.1613 38.1248 43.4742C37.2835 42.7877 37.1576 41.5446 37.8442 40.703C38.2329 40.2268 38.7999 39.9801 39.3716 39.9801C39.8093 39.9801 40.25 40.125 40.6151 40.4229C41.4563 41.1094 41.5822 42.3521 40.8956 43.1937Z" fill="#414141"/>
<path d="M44.3408 36.715C44.067 36.4969 43.6681 36.5434 43.4505 36.8164L42.4897 38.0252C42.2717 38.299 42.3173 38.6982 42.5911 38.9154C42.7077 39.0084 42.8468 39.0531 42.9853 39.0531C43.1717 39.0531 43.3567 38.9712 43.4818 38.814L44.4426 37.6052C44.6602 37.3314 44.615 36.9321 44.3408 36.715Z" fill="#414141"/>
<path d="M48.3348 31.6955C48.0618 31.4779 47.6621 31.5231 47.4445 31.7969L45.4477 34.3066C45.2297 34.5804 45.2754 34.9793 45.5491 35.1973C45.6653 35.2902 45.8048 35.335 45.9433 35.335C46.1297 35.335 46.3147 35.2531 46.4398 35.0959L48.4366 32.5862C48.6538 32.3124 48.6086 31.9135 48.3348 31.6955Z" fill="#414141"/>
<path d="M51.2932 27.9769C51.0203 27.7589 50.6206 27.805 50.403 28.0783L49.4413 29.2871C49.2233 29.5609 49.2689 29.9598 49.5427 30.1778C49.6589 30.2707 49.7983 30.3155 49.9369 30.3155C50.1233 30.3155 50.3083 30.2336 50.4334 30.0764L51.395 28.8676C51.6122 28.5938 51.567 28.1949 51.2932 27.9769Z" fill="#414141"/>
<path d="M54.0788 24.1169C53.9077 23.9952 53.6876 23.9669 53.4919 24.0396L48.7459 25.7981C48.418 25.9198 48.2503 26.2844 48.3719 26.6127C48.4932 26.9406 48.8574 27.1083 49.1865 26.987L53.0631 25.5509L52.9917 29.6843C52.9858 30.0346 53.2646 30.3228 53.6149 30.3291C53.6187 30.3291 53.6225 30.3291 53.6259 30.3291C53.9706 30.3291 54.2529 30.0524 54.2592 29.7063L54.3463 24.6455C54.3496 24.4355 54.2499 24.2377 54.0788 24.1169Z" fill="#414141"/>
</svg>
