<svg width="70" height="70" viewBox="0 0 70 70" fill="none" xmlns="http://www.w3.org/2000/svg">
<circle cx="20" cy="23" r="12" fill="#FFF0B3"/>
<path d="M52.5355 18.5945H48.0389V17.7681C48.0389 16.2419 46.7818 15 45.236 15C43.6886 15 42.4294 16.2419 42.4294 17.7681V18.5945H37.4518V17.7681C37.4518 16.2419 36.1936 15 34.6468 15C33.0988 15 31.8402 16.2419 31.8402 17.7681V18.5945H26.8641V17.7681C26.8641 16.2419 25.605 15 24.0576 15C22.5107 15 21.2525 16.2419 21.2525 17.7681V18.5945H16.7693C16.3442 18.5945 16 18.9341 16 19.3536V54.6418C16 55.0608 16.3442 55.4009 16.7693 55.4009H52.535C52.9596 55.4009 53.3043 55.0608 53.3043 54.6418V19.3536C53.3048 18.9341 52.9601 18.5945 52.5355 18.5945ZM43.9686 17.7681C43.9686 17.0789 44.5369 16.5182 45.2365 16.5182C45.9335 16.5182 46.5008 17.0789 46.5008 17.7681V21.5241C46.5008 22.2133 45.9335 22.774 45.2365 22.7745C44.5374 22.7745 43.9686 22.2138 43.9686 21.5241V17.7681ZM34.6473 16.5182C35.3453 16.5182 35.9136 17.0789 35.9136 17.7681V21.5241C35.9136 22.2133 35.3458 22.774 34.6473 22.7745C33.9482 22.7745 33.3794 22.2138 33.3794 21.5241V19.4249C33.3815 19.4012 33.3866 19.3784 33.3866 19.3536C33.3866 19.3288 33.3815 19.306 33.3794 19.2822V17.7681C33.3794 17.0789 33.9482 16.5182 34.6473 16.5182ZM22.7917 17.7681C22.7917 17.0789 23.36 16.5182 24.0581 16.5182C24.7571 16.5182 25.3259 17.0789 25.3259 17.7681V21.5241C25.3259 22.2133 24.7571 22.774 24.0581 22.7745C23.36 22.7745 22.7917 22.2138 22.7917 21.5241V17.7681ZM51.7661 53.8827H17.5392V20.1127H21.2531V21.5241C21.2531 23.0508 22.5117 24.2927 24.0586 24.2927C25.606 24.2922 26.8646 23.0498 26.8646 21.5241V20.1127H31.8407V21.5241C31.8407 23.0508 33.0999 24.2927 34.6478 24.2927C36.1942 24.2922 37.4523 23.0498 37.4523 21.5241V20.1127H42.4299V21.5241C42.4299 23.0508 43.6891 24.2927 45.237 24.2927C46.7823 24.2922 48.0394 23.0498 48.0394 21.5241V20.1127H51.7666V53.8827H51.7661Z" fill="#414141"/>
<path d="M44.6945 32.131C44.3542 31.9176 43.8655 31.9703 43.6035 32.25L33.2526 43.3332L26.3819 36.4133C26.1106 36.14 25.6203 36.0987 25.2872 36.321C24.9536 36.5434 24.9033 36.9451 25.1747 37.218L32.6679 44.7645C32.8158 44.9137 33.0373 45 33.2718 45C33.2754 45 33.2796 45 33.2832 45C33.5214 44.997 33.745 44.9048 33.8897 44.7496L44.8403 33.0249C45.1008 32.7457 45.0359 32.3452 44.6945 32.131Z" fill="#414141"/>
</svg>
