<svg width="70" height="70" viewBox="0 0 70 70" fill="none" xmlns="http://www.w3.org/2000/svg">
<circle cx="19" cy="28" r="12" fill="#FFF0B3"/>
<path d="M52.1267 22H18.1192C16.3994 22 15 23.3994 15 25.1192V27.2039V31.6962V45.2029C15 46.9227 16.3994 48.3217 18.1192 48.3217H52.1267C53.8465 48.3217 55.2455 46.9227 55.2455 45.2029V31.6962V27.2039V25.1192C55.2455 23.3994 53.8465 22 52.1267 22ZM18.1188 23.2954H52.1263C53.1319 23.2954 53.9497 24.1136 53.9497 25.1192V26.5562H16.2949V25.1192C16.2954 24.1132 17.1132 23.2954 18.1188 23.2954ZM53.9502 31.0481H16.2954V27.8511H53.9502V31.0481ZM52.1267 47.0259H18.1192C17.1136 47.0259 16.2954 46.2077 16.2954 45.2025V32.3434H53.9502V45.2025C53.9502 46.2077 53.1319 47.0259 52.1267 47.0259Z" fill="#414141"/>
<path d="M21.2596 39.9572C20.0148 39.9572 19.0018 40.9706 19.0018 42.2158C19.0018 43.4602 20.0148 44.4728 21.2596 44.4728C22.5053 44.4728 23.5183 43.4602 23.5183 42.2158C23.5183 40.9706 22.5053 39.9572 21.2596 39.9572ZM21.2596 43.1774C20.7289 43.1774 20.2972 42.7461 20.2972 42.2158C20.2972 41.6847 20.7289 41.2525 21.2596 41.2525C21.7907 41.2525 22.2229 41.6847 22.2229 42.2158C22.2229 42.7461 21.7907 43.1774 21.2596 43.1774Z" fill="#414141"/>
<path d="M44.3386 41.6442H26.0896C25.7316 41.6442 25.4419 41.9339 25.4419 42.2918C25.4419 42.6498 25.7316 42.9395 26.0896 42.9395H44.3386C44.6966 42.9395 44.9863 42.6498 44.9863 42.2918C44.9863 41.9339 44.6966 41.6442 44.3386 41.6442Z" fill="#414141"/>
</svg>
