<svg width="70" height="70" viewBox="0 0 70 70" fill="none" xmlns="http://www.w3.org/2000/svg">
<circle cx="19" cy="23" r="12" fill="#FFF0B3"/>
<path d="M49.6303 21.4857L34.7716 15.0545C34.6895 15.0186 34.6007 15 34.5109 15C34.4211 15 34.3323 15.0186 34.2502 15.0545L19.3915 21.4857C19.2714 21.5361 19.1697 21.6213 19.0999 21.73C19.0301 21.8388 18.9954 21.9659 19.0005 22.0945L19.6783 41.1181C19.8574 43.3379 20.6373 45.4695 21.9366 47.2901C23.2358 49.1108 25.0067 50.5537 27.0642 51.4681L34.2502 54.6709C34.3344 54.7105 34.4264 54.731 34.5196 54.731C34.6128 54.731 34.7048 54.7105 34.789 54.6709L41.975 51.4681C44.0368 50.5513 45.8105 49.1037 47.11 47.2774C48.4096 45.451 49.1871 43.3132 49.3609 41.0881L50.0387 22.0945C50.0424 21.9639 50.0052 21.8353 49.9321 21.7264C49.859 21.6174 49.7536 21.5333 49.6303 21.4857ZM48.0445 41.0152C47.8853 43.0049 47.1877 44.916 46.0245 46.5488C44.8614 48.1816 43.2753 49.4763 41.4319 50.2976L34.5109 53.3803L27.5899 50.2976C25.7546 49.4799 24.1743 48.1929 23.0124 46.5699C21.8506 44.9469 21.1494 43.0469 20.9817 41.0667L20.3169 22.489L34.5109 16.3536L48.7049 22.489L48.0445 41.0152Z" fill="#414141"/>
<path d="M29.949 26.695V29.0617H25.3871C25.2143 29.0617 25.0485 29.1295 24.9263 29.2501C24.8041 29.3707 24.7354 29.5343 24.7354 29.7048V42.1385C24.7354 42.3091 24.8041 42.4727 24.9263 42.5933C25.0485 42.7139 25.2143 42.7817 25.3871 42.7817H43.6347C43.8075 42.7817 43.9733 42.7139 44.0955 42.5933C44.2177 42.4727 44.2864 42.3091 44.2864 42.1385V29.7048C44.2864 29.5343 44.2177 29.3707 44.0955 29.2501C43.9733 29.1295 43.8075 29.0617 43.6347 29.0617H39.0728V26.5449C39.0721 25.9314 38.9446 25.3245 38.6981 24.7613C38.4516 24.198 38.0912 23.6904 37.6391 23.2693C37.1867 22.8449 36.65 22.5175 36.063 22.308C35.476 22.0984 34.8514 22.0111 34.2285 22.0517C33.0509 22.1441 31.9531 22.6756 31.1582 23.5381C30.3633 24.4005 29.931 25.5293 29.949 26.695ZM42.983 41.4954H26.0388V30.3479H42.983V41.4954ZM36.7441 24.204C37.0692 24.5034 37.328 24.866 37.5045 25.2688C37.6809 25.6716 37.7711 26.1061 37.7694 26.5449V29.0617H31.2524V26.695C31.2335 25.8587 31.537 25.0466 32.1015 24.4226C32.6661 23.7987 33.4496 23.4095 34.2937 23.3336C34.7409 23.3038 35.1895 23.3658 35.6112 23.5156C36.033 23.6654 36.4187 23.8998 36.7441 24.204Z" fill="#414141"/>
<path d="M34.5109 32.5131C33.9988 32.5221 33.5064 32.7093 33.1206 33.0418C32.7348 33.3743 32.4805 33.8306 32.4025 34.3302C32.3246 34.8297 32.428 35.3404 32.6945 35.772C32.9611 36.2036 33.3736 36.5284 33.8592 36.6891V38.7085C33.8592 38.879 33.9279 39.0426 34.0501 39.1632C34.1723 39.2838 34.3381 39.3516 34.5109 39.3516C34.6837 39.3516 34.8495 39.2838 34.9717 39.1632C35.0939 39.0426 35.1626 38.879 35.1626 38.7085V36.6891C35.6482 36.5284 36.0607 36.2036 36.3273 35.772C36.5938 35.3404 36.6972 34.8297 36.6192 34.3302C36.5413 33.8306 36.287 33.3743 35.9012 33.0418C35.5154 32.7093 35.023 32.5221 34.5109 32.5131ZM34.5109 35.5143C34.339 35.5143 34.171 35.464 34.0281 35.3698C33.8852 35.2756 33.7739 35.1416 33.7081 34.985C33.6423 34.8283 33.6251 34.6559 33.6587 34.4895C33.6922 34.3232 33.7749 34.1704 33.8965 34.0505C34.018 33.9305 34.1728 33.8489 34.3414 33.8158C34.5099 33.7827 34.6846 33.7997 34.8434 33.8646C35.0022 33.9295 35.1379 34.0394 35.2334 34.1804C35.3289 34.3214 35.3798 34.4872 35.3798 34.6568C35.3798 34.8842 35.2883 35.1023 35.1253 35.2631C34.9624 35.424 34.7414 35.5143 34.5109 35.5143Z" fill="#414141"/>
</svg>
