<svg width="70" height="71" viewBox="0 0 70 71" fill="none" xmlns="http://www.w3.org/2000/svg">
<circle cx="15" cy="23.8809" r="12" fill="#FFF0B3"/>
<circle cx="17" cy="20.8809" r="12" fill="#FFF0B3"/>
<path d="M37.3976 44.3484C37.1796 44.0006 36.7187 43.8926 36.3658 44.1076L31.481 47.0818C29.8979 48.0466 27.587 47.5405 26.6337 46.0212L19.9933 35.3989C19.5249 34.6506 19.38 33.7666 19.5859 32.9092C19.7919 32.0524 20.3228 31.3258 21.0821 30.8635L26.1523 27.774C26.5047 27.5594 26.6137 27.1036 26.3963 26.7558L22.1933 20.0351C21.9758 19.6873 21.5145 19.5788 21.1615 19.7939L16.0943 22.879C10.4587 26.3114 10.6591 35.3284 16.5832 44.8071C19.3015 49.1541 22.7212 52.6107 26.2128 54.5395C28.2598 55.6706 30.2753 56.2384 32.1524 56.2384C33.7235 56.2384 35.1971 55.8398 36.5088 55.0407L41.3571 52.0868C41.7095 51.8722 41.8185 51.4164 41.601 51.0686L37.3976 44.3484ZM35.7215 53.7822C32.6522 55.6528 29.2546 54.5242 26.9456 53.2485C23.6729 51.4406 20.4462 48.1665 17.8599 44.0302C12.3997 35.2934 11.9973 27.1135 16.8821 24.1384L21.311 21.4415L24.7267 26.9028L20.2943 29.6036C19.1945 30.2735 18.4247 31.3262 18.1273 32.5679C17.8294 33.81 18.0388 35.0911 18.7181 36.1754L25.359 46.7981C26.7492 49.0155 29.9789 49.7362 32.2693 48.3402L36.5158 45.7548L39.9319 51.2161L35.7215 53.7822Z" fill="#414141"/>
<path d="M54.7968 15.8809H34.4638C32.9207 15.8809 31.665 17.1215 31.665 18.6468V30.706C31.665 32.2298 32.9207 33.4695 34.4638 33.4695H36.8532V38.3763C36.8532 38.6693 37.0282 38.9342 37.2996 39.0531C37.3971 39.0956 37.5 39.1163 37.6025 39.1163C37.7855 39.1163 37.9664 39.0502 38.1069 38.9239L44.1924 33.469H54.7963C56.3394 33.469 57.5951 32.2293 57.5951 30.7055V18.6463C57.5956 17.122 56.3399 15.8809 54.7968 15.8809ZM56.096 30.7065C56.096 31.4144 55.5131 31.9901 54.7968 31.9901H43.903C43.7165 31.9901 43.5371 32.0586 43.3991 32.1825L38.3528 36.7055V32.73C38.3528 32.3211 38.0174 31.9901 37.603 31.9901H34.4638C33.7475 31.9901 33.1646 31.4144 33.1646 30.7065V18.6473C33.1646 17.9379 33.7475 17.3613 34.4638 17.3613H54.7968C55.5131 17.3613 56.096 17.9379 56.096 18.6473V30.7065Z" fill="#414141"/>
<path d="M38.7382 22.139C38.2244 22.14 37.7425 22.3383 37.3816 22.6974C37.0226 23.054 36.8262 23.5261 36.8287 24.0278C36.8337 25.0628 37.694 25.9033 38.7497 25.9033C38.7512 25.9033 38.7527 25.9033 38.7542 25.9033C39.8085 25.8979 40.6638 25.0504 40.6613 24.0145C40.6603 23.5138 40.4608 23.0432 40.0994 22.6895C39.7355 22.3323 39.2436 22.1237 38.7382 22.139ZM38.7487 24.4229C38.5138 24.4229 38.3298 24.2463 38.3288 24.0209C38.3283 23.9153 38.3698 23.8157 38.4458 23.7402C38.5248 23.6618 38.6203 23.6263 38.7457 23.6189C38.8587 23.6189 38.9642 23.6613 39.0437 23.7392C39.1201 23.8142 39.1621 23.9134 39.1626 24.0175C39.1626 24.2399 38.9757 24.422 38.7487 24.4229Z" fill="#414141"/>
<path d="M44.3923 22.1389C43.8775 22.1399 43.3946 22.3387 43.0337 22.6978C42.6748 23.054 42.4788 23.5266 42.4813 24.0273C42.4858 25.0622 43.3461 25.9028 44.4023 25.9028C44.4038 25.9028 44.4053 25.9028 44.4068 25.9028C45.4631 25.8974 46.3189 25.0494 46.3139 24.012C46.3124 23.5123 46.1129 23.0421 45.752 22.6885C45.3881 22.3323 44.9017 22.1429 44.3923 22.1389ZM44.8137 24.0189C44.8147 24.2404 44.6283 24.4214 44.4008 24.4229H44.4003C44.1699 24.4229 43.9819 24.2428 43.9809 24.0209C43.9804 23.9153 44.0219 23.8156 44.0979 23.7407C44.1769 23.6622 44.3074 23.6218 44.3998 23.6188C44.5118 23.6188 44.6163 23.6612 44.6953 23.7387C44.7398 23.7821 44.8142 23.8763 44.8142 24.0174C44.8137 24.0179 44.8137 24.0184 44.8137 24.0189Z" fill="#414141"/>
<path d="M50.0444 22.1389C49.5301 22.1399 49.0472 22.3382 48.6858 22.6973C48.3274 23.0535 48.1309 23.5256 48.1329 24.0273C48.1379 25.0622 48.9982 25.9028 50.0544 25.9028C50.0559 25.9028 50.0574 25.9028 50.0589 25.9028C51.1142 25.8974 51.9695 25.0499 51.966 24.0139C51.965 23.5132 51.765 23.0426 51.4036 22.6885C51.0397 22.3318 50.5718 22.1429 50.0444 22.1389ZM50.4658 24.0189C50.4668 24.2404 50.2804 24.4219 50.0529 24.4229C50.0529 24.4229 50.0524 24.4229 50.0519 24.4229C49.8215 24.4229 49.6336 24.2428 49.6326 24.0209C49.6321 23.9153 49.674 23.8156 49.7495 23.7402C49.8285 23.6612 49.915 23.6326 50.0514 23.6183C50.1634 23.6183 50.2684 23.6607 50.3469 23.7382C50.3914 23.7816 50.4658 23.8758 50.4658 24.0169C50.4658 24.0179 50.4658 24.0184 50.4658 24.0189Z" fill="#414141"/>
</svg>
