<svg width="70" height="71" viewBox="0 0 70 71" fill="none" xmlns="http://www.w3.org/2000/svg">
<circle cx="20" cy="26" r="12" fill="#FFF0B3"/>
<circle cx="19" cy="23.8809" r="12" fill="#FFF0B3"/>
<path d="M55.6195 32.4736C55.619 32.4643 55.6175 32.4554 55.6165 32.4456C55.6101 32.3572 55.5905 32.2727 55.5561 32.1955C55.5531 32.1891 55.5497 32.1842 55.5468 32.1778C55.507 32.0958 55.4534 32.0221 55.3876 31.9602C55.3851 31.9577 55.3841 31.9548 55.3817 31.9523L48.8033 25.9409V19.9412C48.8033 19.534 48.4731 19.2043 48.0664 19.2043H41.4231L35.8086 14.0738C35.5276 13.8168 35.0968 13.8163 34.8148 14.0738L29.1964 19.2043H22.9624C22.5551 19.2043 22.2254 19.534 22.2254 19.9412V25.57L15.2407 31.9523C15.2383 31.9548 15.2373 31.9577 15.2348 31.9602C15.169 32.0221 15.1155 32.0958 15.0757 32.1778C15.0727 32.1842 15.0688 32.1896 15.0658 32.196C15.0314 32.2731 15.0118 32.3572 15.0054 32.4456C15.0049 32.4554 15.0029 32.4648 15.0025 32.4746C15.0025 32.4824 15 32.4893 15 32.4972V57.4916C15 57.5722 15.0162 57.6488 15.0403 57.7215C15.0437 57.7314 15.0457 57.7407 15.0491 57.7505C15.0811 57.835 15.1282 57.9112 15.1867 57.9775C15.1901 57.9814 15.1911 57.9863 15.1946 57.9903C15.1975 57.9937 15.2014 57.9957 15.2049 57.9991C15.2289 58.0242 15.2555 58.0463 15.283 58.0679C15.2953 58.0772 15.3061 58.0885 15.3188 58.0974C15.3513 58.12 15.3862 58.1382 15.422 58.1549C15.4309 58.1588 15.4387 58.1652 15.4476 58.1686C15.5365 58.2064 15.6343 58.2281 15.7369 58.2281H54.884C55.2908 58.2281 55.6209 57.8979 55.6209 57.4911V32.4967C55.6219 32.4888 55.62 32.4815 55.6195 32.4736ZM16.4749 34.2378L22.4357 39.6823C22.4436 39.6902 22.4524 39.6975 22.4607 39.7049L28.2364 44.9809L16.4749 55.8104V34.2378ZM29.3285 45.9787L35.0172 51.1746C35.1582 51.3033 35.336 51.3677 35.5144 51.3677C35.6922 51.3677 35.8705 51.3033 36.011 51.1751L41.6815 46.0028L53.0323 56.7537H17.6264L29.3285 45.9787ZM42.7732 45.0074L54.1481 34.6323V55.7809L42.7732 45.0074ZM54.0468 32.7291L48.8028 37.5118V27.9375L54.0468 32.7291ZM35.311 15.6159L39.2383 19.2043H31.3821L35.311 15.6159ZM47.3294 20.6782V26.275C47.3294 26.2863 47.3289 26.2966 47.3294 26.3074V38.8564L41.1676 44.4768C41.1632 44.4812 41.1573 44.4827 41.1529 44.4871C41.1509 44.4891 41.1504 44.4921 41.1485 44.4945L35.5148 49.6329L23.6993 38.8407V20.6782H47.3294ZM22.2254 37.4946L16.7922 32.5316L22.2254 27.5666V37.4946Z" fill="#414141"/>
<path d="M35.5144 41.5098C37.2098 41.5098 38.8384 40.9896 40.2234 40.0055C40.5555 39.7702 40.6336 39.3098 40.3973 38.9782C40.162 38.6456 39.7002 38.568 39.37 38.8043C38.2351 39.61 36.9023 40.036 35.5139 40.036C31.8547 40.036 28.878 37.0578 28.878 33.3966C28.878 29.7341 31.8547 26.7544 35.5139 26.7544C38.1939 26.7544 40.3521 28.0912 41.4624 30.4238V34.421C41.4624 35.0837 40.9215 35.6227 40.2573 35.6227C39.6255 35.6227 39.0335 35.0317 38.9829 34.3837C39.0693 34.0687 39.1195 33.7386 39.1195 33.3962C39.1195 31.3327 37.4387 29.6535 35.3734 29.6535C33.3075 29.6535 31.6273 31.3322 31.6273 33.3962C31.6273 35.4601 33.3075 37.1388 35.3734 37.1388C36.4399 37.1388 37.4014 36.6888 38.0843 35.9715C38.5982 36.6446 39.3956 37.0966 40.2568 37.0966C41.7341 37.0966 42.9358 35.8963 42.9358 34.421V30.2519C42.9358 30.2485 42.9348 30.245 42.9348 30.2416C42.9343 30.22 42.9304 30.1983 42.9284 30.1767C42.9255 30.1492 42.924 30.1212 42.9181 30.0947C42.9157 30.0824 42.9103 30.0706 42.9068 30.0588C42.897 30.023 42.8867 29.9876 42.8719 29.9542C42.8709 29.9527 42.871 29.9507 42.87 29.9488C41.5494 27.0256 38.7996 25.2805 35.5129 25.2805C31.0411 25.2805 27.4031 28.9215 27.4031 33.3966C27.4046 37.8703 31.0426 41.5098 35.5144 41.5098ZM35.3743 35.6654C34.1215 35.6654 33.1021 34.6475 33.1021 33.3966C33.1021 32.1458 34.1215 31.1279 35.3743 31.1279C36.6271 31.1279 37.6466 32.1453 37.6466 33.3966C37.6466 34.648 36.6271 35.6654 35.3743 35.6654Z" fill="#414141"/>
</svg>
