<svg xmlns="http://www.w3.org/2000/svg" xmlns:xlink="http://www.w3.org/1999/xlink" width="70" height="562" viewBox="0 0 70 562"><svg width="70" height="70" viewBox="0 0 70 70" fill="none" id="icon-i-1" y="0"><circle cx="23" cy="23" r="12" fill="#FFF0B3"></circle><path d="M53.29 52.59h-2.133V23.053a.725.725 0 0 0-.209-.509.706.706 0 0 0-.502-.211H43.81a.706.706 0 0 0-.502.211.726.726 0 0 0-.209.51V52.59h-3.79V34.099a.725.725 0 0 0-.209-.51.706.706 0 0 0-.502-.21h-6.635a.706.706 0 0 0-.502.21.725.725 0 0 0-.209.51v18.492h-3.79v-7.925a.725.725 0 0 0-.21-.51.706.706 0 0 0-.502-.21h-6.634a.706.706 0 0 0-.503.21.725.725 0 0 0-.208.51v7.925h-2.133a.706.706 0 0 0-.502.21.725.725 0 0 0 0 1.02.706.706 0 0 0 .502.21H53.29c.189 0 .37-.075.503-.21a.725.725 0 0 0 0-1.02.706.706 0 0 0-.503-.21zm-8.768-28.817h5.213V52.59h-5.213V23.773zM32.675 34.82h5.213v17.77h-5.213V34.82zM20.828 45.386h5.213v7.205h-5.213v-7.205zM17.747 39.142c.189 0 .37-.076.503-.211l19.638-19.903v3.064c0 .19.075.374.208.51a.706.706 0 0 0 1.005 0 .725.725 0 0 0 .208-.51v-4.803a.724.724 0 0 0-.71-.72h-4.74a.706.706 0 0 0-.502.21.725.725 0 0 0 0 1.02.706.706 0 0 0 .503.21h3.023L17.245 37.913a.723.723 0 0 0-.154.785.704.704 0 0 0 .656.445z" fill="#414141"></path></svg><svg width="70" height="70" viewBox="0 0 70 70" fill="none" id="icon-i-2" y="70"><circle cx="22" cy="26" r="12" fill="#FFF0B3"></circle><path d="M47.516 35.078a.705.705 0 0 0-.648-.433h-8.116l4.7-19.088a.705.705 0 0 0-1.19-.648L22.405 34.852a.705.705 0 0 0 .498 1.203h8.116l-4.7 19.088a.705.705 0 0 0 1.19.648l19.858-19.943a.705.705 0 0 0 .15-.77zm-19.21 17.936l4.305-17.495a.704.704 0 0 0-.691-.874h-7.322l16.866-16.959-4.295 17.495a.705.705 0 0 0 .681.874h7.321l-16.865 16.96zM44.781 44.015a.705.705 0 0 0-.996.996l5.64 5.64a.705.705 0 0 0 .995-.997l-5.639-5.639zM24.547 25.952a.704.704 0 0 0 .498-1.203l-5.639-5.64a.705.705 0 0 0-.996.997l5.639 5.639a.705.705 0 0 0 .498.207z" fill="#414141"></path><path d="M43.55 25.51a.705.705 0 0 0 .996 0l5.64-5.639a.705.705 0 0 0-.997-.996l-5.639 5.639a.705.705 0 0 0 0 .996zM24.284 44.25l-5.64 5.64a.704.704 0 1 0 .997.995l5.639-5.639a.705.705 0 0 0-.996-.996zM20.083 42.164a1.175 1.175 0 1 0 0-2.35 1.175 1.175 0 0 0 0 2.35zM15.853 38.874a1.175 1.175 0 1 0 0-2.35 1.175 1.175 0 0 0 0 2.35zM53.447 32.766a1.175 1.175 0 1 0 0-2.35 1.175 1.175 0 0 0 0 2.35zM26.192 21.018a1.175 1.175 0 1 0 0-2.35 1.175 1.175 0 0 0 0 2.35z" fill="#414141"></path></svg><svg width="70" height="70" viewBox="0 0 70 70" fill="none" id="icon-i-3" y="140"><circle cx="19" cy="27" r="12" fill="#FFF0B3"></circle><path d="M41.417 39.44a3.241 3.241 0 0 0-4.116.02l-7.716-6.138c.096-.368.13-.754.09-1.145a3.215 3.215 0 0 0-1.173-2.181 3.24 3.24 0 0 0-4.554.46 3.24 3.24 0 0 0 .078 4.181l-4.782 5.448a3.2 3.2 0 0 0-2.334-.685 3.214 3.214 0 0 0-2.182 1.174 3.24 3.24 0 0 0 .46 4.554 3.212 3.212 0 0 0 2.373.713 3.215 3.215 0 0 0 2.182-1.174c.547-.67.8-1.512.713-2.372a3.23 3.23 0 0 0-.383-1.233l4.968-5.659c.448.219.929.336 1.412.336.94 0 1.872-.406 2.51-1.189.018-.02.032-.043.048-.065l7.492 5.96a3.243 3.243 0 0 0 .82 4.011c.6.49 1.324.728 2.044.728a3.231 3.231 0 0 0 3.223-3.561 3.216 3.216 0 0 0-1.173-2.182zm-22.656 4.426a1.956 1.956 0 0 1-1.328.714 1.954 1.954 0 0 1-1.443-.433 1.973 1.973 0 0 1-.28-2.772 1.972 1.972 0 0 1 2.77-.28c.081.066.151.142.22.218a.624.624 0 0 0 .144.187c.19.272.316.584.35.923.054.523-.1 1.035-.433 1.443zm9.22-10.117c-.332.407-.804.66-1.327.714a1.971 1.971 0 0 1-1.724-3.204 1.971 1.971 0 0 1 3.485 1.047 1.956 1.956 0 0 1-.434 1.443zm12.915 9.445c-.687.84-1.93.967-2.771.28a1.972 1.972 0 0 1-.28-2.771 1.966 1.966 0 0 1 1.527-.723c.437 0 .878.145 1.243.443.841.686.967 1.93.28 2.77zM44.34 36.715a.634.634 0 0 0-.89.101l-.96 1.21a.633.633 0 1 0 .992.788l.96-1.209a.633.633 0 0 0-.101-.89zM48.335 31.695a.634.634 0 0 0-.89.102l-1.997 2.51a.634.634 0 0 0 .992.789l1.997-2.51a.635.635 0 0 0-.102-.89zM51.293 27.977a.634.634 0 0 0-.89.101l-.962 1.21a.634.634 0 0 0 .992.788l.962-1.208a.635.635 0 0 0-.102-.891z" fill="#414141"></path><path d="M54.079 24.117a.633.633 0 0 0-.587-.077l-4.746 1.758a.634.634 0 0 0 .44 1.189l3.877-1.436-.071 4.133a.634.634 0 0 0 .623.645h.01a.634.634 0 0 0 .634-.623l.087-5.06a.634.634 0 0 0-.267-.53z" fill="#414141"></path></svg><svg width="70" height="70" viewBox="0 0 70 70" fill="none" id="icon-i-4" y="210"><circle cx="20" cy="23" r="12" fill="#FFF0B3"></circle><path d="M52.535 18.595H48.04v-.827c0-1.526-1.257-2.768-2.803-2.768-1.547 0-2.807 1.242-2.807 2.768v.826h-4.977v-.826c0-1.526-1.258-2.768-2.805-2.768-1.548 0-2.807 1.242-2.807 2.768v.826h-4.976v-.826c0-1.526-1.259-2.768-2.806-2.768-1.547 0-2.805 1.242-2.805 2.768v.826h-4.484c-.425 0-.769.34-.769.76v35.288c0 .419.344.759.77.759h35.765c.425 0 .77-.34.77-.76V19.355c0-.42-.345-.76-.77-.76zm-8.566-.827c0-.69.568-1.25 1.267-1.25.698 0 1.265.56 1.265 1.25v3.756c0 .69-.567 1.25-1.264 1.25-.7 0-1.268-.56-1.268-1.25v-3.756zm-9.322-1.25c.698 0 1.267.56 1.267 1.25v3.756c0 .69-.568 1.25-1.267 1.25s-1.268-.56-1.268-1.25v-2.1c.003-.023.008-.046.008-.07 0-.025-.005-.048-.008-.072v-1.514c0-.69.57-1.25 1.268-1.25zm-11.855 1.25c0-.69.568-1.25 1.266-1.25.7 0 1.268.56 1.268 1.25v3.756c0 .69-.569 1.25-1.268 1.25a1.26 1.26 0 0 1-1.266-1.25v-3.756zm28.974 36.115H17.54v-33.77h3.714v1.411c0 1.527 1.259 2.769 2.806 2.769 1.547 0 2.806-1.243 2.806-2.769v-1.411h4.976v1.411c0 1.527 1.259 2.769 2.807 2.769 1.546 0 2.804-1.243 2.804-2.769v-1.411h4.978v1.411c0 1.527 1.26 2.769 2.807 2.769 1.545 0 2.802-1.243 2.802-2.769v-1.411h3.728v33.77z" fill="#414141"></path><path d="M44.694 32.131c-.34-.213-.829-.16-1.09.119L33.252 43.333l-6.871-6.92c-.271-.273-.762-.314-1.095-.092-.333.222-.384.624-.112.897l7.493 7.546c.148.15.37.236.604.236h.011a.846.846 0 0 0 .607-.25l10.95-11.725c.26-.28.196-.68-.146-.894z" fill="#414141"></path></svg><svg width="70" height="70" viewBox="0 0 70 70" fill="none" id="icon-i-5" y="280"><circle cx="19" cy="28" r="12" fill="#FFF0B3"></circle><path d="M52.127 22H18.119C16.4 22 15 23.4 15 25.12v20.083c0 1.72 1.4 3.119 3.12 3.119h34.007a3.122 3.122 0 0 0 3.118-3.12V25.12c0-1.72-1.398-3.119-3.118-3.119zm-34.008 1.295h34.007c1.006 0 1.824.819 1.824 1.824v1.437H16.295V25.12c0-1.006.818-1.824 1.824-1.824zm35.831 7.753H16.295v-3.197H53.95v3.197zm-1.823 15.978H18.119a1.826 1.826 0 0 1-1.824-1.824V32.343H53.95v12.86a1.826 1.826 0 0 1-1.823 1.823z" fill="#414141"></path><path d="M21.26 39.957a2.261 2.261 0 0 0-2.258 2.259 2.26 2.26 0 0 0 2.258 2.257 2.26 2.26 0 0 0 2.258-2.257 2.261 2.261 0 0 0-2.258-2.259zm0 3.22a.963.963 0 1 1 0-1.926.963.963 0 0 1 0 1.926zM44.339 41.644h-18.25a.647.647 0 1 0 0 1.296h18.25a.647.647 0 1 0 0-1.296z" fill="#414141"></path></svg><svg width="70" height="70" viewBox="0 0 70 70" fill="none" id="icon-i-6" y="350"><circle cx="19" cy="23" r="12" fill="#FFF0B3"></circle><path d="M49.63 21.486l-14.858-6.431a.65.65 0 0 0-.522 0l-14.858 6.43a.641.641 0 0 0-.392.61l.678 19.023a12.33 12.33 0 0 0 2.259 6.172c1.299 1.82 3.07 3.264 5.127 4.178l7.186 3.203a.633.633 0 0 0 .539 0l7.186-3.203a12.563 12.563 0 0 0 5.135-4.19 12.33 12.33 0 0 0 2.25-6.19l.679-18.994a.628.628 0 0 0-.409-.608zm-1.586 19.53c-.159 1.989-.856 3.9-2.02 5.533a11.263 11.263 0 0 1-4.592 3.749L34.51 53.38l-6.921-3.082a11.264 11.264 0 0 1-4.578-3.728 11.056 11.056 0 0 1-2.03-5.503l-.665-18.578 14.194-6.135 14.194 6.135-.66 18.526z" fill="#414141"></path><path d="M29.949 26.695v2.367h-4.562a.656.656 0 0 0-.46.188.639.639 0 0 0-.192.455v12.434c0 .17.07.334.191.454.123.12.288.189.461.189h18.248a.656.656 0 0 0 .46-.189.639.639 0 0 0 .191-.455V29.706a.639.639 0 0 0-.19-.455.656.656 0 0 0-.461-.188h-4.562v-2.517a4.46 4.46 0 0 0-.375-1.784 4.51 4.51 0 0 0-1.059-1.492 4.528 4.528 0 0 0-1.576-.961 4.572 4.572 0 0 0-1.835-.256 4.672 4.672 0 0 0-3.07 1.486 4.553 4.553 0 0 0-1.209 3.157zm13.034 14.8H26.039V30.348h16.944v11.147zm-6.239-17.291c.325.3.584.662.76 1.065.177.403.267.837.265 1.276v2.517h-6.517v-2.367a3.276 3.276 0 0 1 .85-2.272 3.362 3.362 0 0 1 2.192-1.09 3.285 3.285 0 0 1 2.45.871z" fill="#414141"></path><path d="M34.51 32.513a2.189 2.189 0 0 0-1.39.529 2.12 2.12 0 0 0-.426 2.73c.267.432.68.756 1.165.917v2.02c0 .17.069.334.191.454a.656.656 0 0 0 .922 0 .639.639 0 0 0 .19-.454v-2.02c.486-.16.899-.485 1.165-.917a2.12 2.12 0 0 0-.426-2.73 2.189 2.189 0 0 0-1.39-.529zm0 3.001a.877.877 0 0 1-.482-.144.846.846 0 0 1-.132-1.32.872.872 0 0 1 .947-.185.867.867 0 0 1 .39.315.85.85 0 0 1-.108 1.083.874.874 0 0 1-.614.251z" fill="#414141"></path></svg><svg width="70" height="71" viewBox="0 0 70 71" fill="none" id="icon-i-7" y="420"><circle cx="15" cy="23.881" r="12" fill="#FFF0B3"></circle><circle cx="17" cy="20.881" r="12" fill="#FFF0B3"></circle><path d="M37.398 44.348a.755.755 0 0 0-1.032-.24l-4.885 2.974c-1.583.965-3.894.459-4.847-1.06l-6.64-10.623a3.234 3.234 0 0 1-.408-2.49 3.279 3.279 0 0 1 1.496-2.046l5.07-3.089a.734.734 0 0 0 .244-1.018l-4.203-6.72a.755.755 0 0 0-1.032-.242l-5.067 3.085c-5.635 3.432-5.435 12.45.49 21.928 2.718 4.347 6.137 7.804 9.629 9.732 2.047 1.132 4.062 1.7 5.94 1.7 1.57 0 3.044-.4 4.356-1.198l4.848-2.954a.734.734 0 0 0 .244-1.018l-4.203-6.72zm-1.677 9.434c-3.069 1.87-6.466.742-8.775-.533-3.273-1.808-6.5-5.083-9.086-9.219-5.46-8.737-5.863-16.917-.978-19.892l4.429-2.697 3.416 5.462-4.433 2.7a4.746 4.746 0 0 0-2.167 2.965 4.686 4.686 0 0 0 .591 3.607l6.641 10.623c1.39 2.218 4.62 2.938 6.91 1.542l4.247-2.585 3.416 5.461-4.21 2.566zM54.797 15.88H34.464c-1.543 0-2.799 1.242-2.799 2.767v12.059c0 1.524 1.256 2.763 2.799 2.763h2.39v4.907a.74.74 0 0 0 .446.677.757.757 0 0 0 .807-.13l6.085-5.454h10.604c1.543 0 2.8-1.24 2.8-2.764V18.647c0-1.524-1.256-2.765-2.8-2.765zm1.299 14.826c0 .708-.583 1.284-1.3 1.284H43.904a.754.754 0 0 0-.504.192l-5.046 4.523V32.73a.745.745 0 0 0-.75-.74h-3.14c-.715 0-1.298-.576-1.298-1.284V18.648c0-.71.583-1.286 1.299-1.286h20.333c.716 0 1.299.577 1.299 1.286v12.06z" fill="#414141"></path><path d="M38.738 22.139c-.514.001-.995.2-1.356.558a1.85 1.85 0 0 0-.553 1.33c.005 1.036.865 1.876 1.92 1.876h.005c1.055-.005 1.91-.853 1.907-1.888 0-.501-.2-.972-.562-1.326a1.879 1.879 0 0 0-1.36-.55zm.01 2.284a.408.408 0 0 1-.42-.402.39.39 0 0 1 .118-.28.434.434 0 0 1 .3-.122c.113 0 .218.042.298.12a.391.391 0 0 1 .119.278.412.412 0 0 1-.414.406zM44.392 22.139c-.515 0-.997.2-1.358.559a1.848 1.848 0 0 0-.553 1.33c.005 1.034.865 1.875 1.921 1.875h.005c1.056-.006 1.912-.854 1.907-1.891a1.85 1.85 0 0 0-.562-1.323 1.953 1.953 0 0 0-1.36-.55zm.422 1.88a.41.41 0 0 1-.413.404.412.412 0 0 1-.42-.402c0-.106.04-.205.117-.28a.484.484 0 0 1 .302-.122c.112 0 .216.042.295.12a.39.39 0 0 1 .12.278l-.001.002zM50.044 22.139a1.92 1.92 0 0 0-1.358.558 1.852 1.852 0 0 0-.553 1.33c.005 1.035.865 1.876 1.921 1.876h.005c1.055-.006 1.91-.853 1.907-1.89a1.85 1.85 0 0 0-.562-1.325 1.918 1.918 0 0 0-1.36-.55zm.422 1.88a.41.41 0 0 1-.413.404h-.001a.412.412 0 0 1-.42-.402c0-.106.042-.205.117-.28.08-.08.166-.108.302-.123.112 0 .217.043.296.12a.39.39 0 0 1 .119.279v.002z" fill="#414141"></path></svg><svg width="70" height="71" viewBox="0 0 70 71" fill="none" id="icon-i-8" y="491"><circle cx="20" cy="26" r="12" fill="#FFF0B3"></circle><circle cx="19" cy="23.881" r="12" fill="#FFF0B3"></circle><path d="M55.62 32.474l-.003-.028a.745.745 0 0 0-.06-.25l-.01-.018a.744.744 0 0 0-.16-.218l-.005-.008-6.579-6.011v-6a.737.737 0 0 0-.737-.737h-6.643l-5.614-5.13a.736.736 0 0 0-.994 0l-5.619 5.13h-6.234a.737.737 0 0 0-.737.737v5.629l-6.984 6.382-.006.008a.743.743 0 0 0-.16.218.741.741 0 0 0-.07.268l-.002.029c0 .007-.003.014-.003.022v24.995c0 .08.016.157.04.23l.01.029c.031.084.078.16.137.227.003.003.004.008.008.012.002.004.006.006.01.01.024.024.05.046.078.068l.036.03a.69.69 0 0 0 .103.057l.026.014c.088.037.186.06.289.06h39.147c.407 0 .737-.331.737-.738V32.497l-.002-.023zm-39.145 1.764l5.96 5.444.026.023 5.775 5.276-11.761 10.83V34.237zm12.853 11.74l5.69 5.197a.735.735 0 0 0 .993 0l5.67-5.172 11.351 10.75H17.626L29.328 45.98zm13.445-.97l11.375-10.376v21.149L42.773 45.007zm11.274-12.279l-5.244 4.783v-9.575l5.244 4.792zM35.31 15.616l3.927 3.588h-7.856l3.929-3.588zm12.018 5.062V38.857l-6.161 5.62-.015.01-.005.008-5.633 5.138L23.699 38.84V20.678h23.63zM22.225 37.495l-5.433-4.963 5.433-4.965v9.928z" fill="#414141"></path><path d="M35.514 41.51c1.696 0 3.324-.52 4.71-1.505a.736.736 0 1 0-.854-1.2 6.625 6.625 0 0 1-3.856 1.231c-3.66 0-6.636-2.978-6.636-6.64 0-3.662 2.977-6.642 6.636-6.642 2.68 0 4.838 1.337 5.948 3.67v3.997c0 .663-.54 1.202-1.205 1.202-.631 0-1.224-.591-1.274-1.24.086-.314.137-.644.137-.987a3.749 3.749 0 0 0-3.747-3.742 3.748 3.748 0 0 0-3.746 3.742 3.748 3.748 0 0 0 3.746 3.743c1.067 0 2.028-.45 2.711-1.168.514.674 1.312 1.126 2.173 1.126a2.68 2.68 0 0 0 2.679-2.676v-4.17l-.001-.01c0-.021-.005-.043-.007-.064-.002-.028-.004-.056-.01-.082-.002-.013-.008-.024-.011-.036a.738.738 0 0 0-.035-.105l-.002-.005c-1.32-2.923-4.07-4.669-7.357-4.669-4.472 0-8.11 3.642-8.11 8.117.002 4.473 3.64 8.113 8.111 8.113zm-.14-5.845a2.273 2.273 0 0 1-2.272-2.268 2.273 2.273 0 0 1 4.545 0 2.273 2.273 0 0 1-2.273 2.268z" fill="#414141"></path></svg></svg>